<mxfile host="app.diagrams.net" agent="Mozilla/5.0 (Windows NT 10.0; Win64; x64) AppleWebKit/537.36 (KHTML, like Gecko) Chrome/132.0.0.0 Safari/537.36" version="26.0.11">
  <diagram name="Página-1" id="xh6WeFX_lJ4x7K7EilVX">
    <mxGraphModel dx="1949" dy="666" grid="1" gridSize="10" guides="1" tooltips="1" connect="1" arrows="1" fold="1" page="1" pageScale="1" pageWidth="827" pageHeight="1169" math="0" shadow="0">
      <root>
        <mxCell id="0" />
        <mxCell id="1" parent="0" />
        <object label="Gestão&lt;div&gt;&lt;br&gt;&lt;/div&gt;" Gestão="" id="yvPvZGCzOI716VyN62wq-1">
          <mxCell style="shape=umlActor;verticalLabelPosition=bottom;verticalAlign=top;html=1;outlineConnect=0;" parent="1" vertex="1">
            <mxGeometry x="920" y="220" width="30" height="60" as="geometry" />
          </mxCell>
        </object>
        <mxCell id="yvPvZGCzOI716VyN62wq-2" value="Coordenação Pedagógica&lt;div&gt;&lt;br&gt;&lt;/div&gt;" style="shape=umlActor;verticalLabelPosition=bottom;verticalAlign=top;html=1;outlineConnect=0;" parent="1" vertex="1">
          <mxGeometry x="920" y="370" width="30" height="60" as="geometry" />
        </mxCell>
        <mxCell id="yvPvZGCzOI716VyN62wq-3" value="Professores&lt;div&gt;&lt;br&gt;&lt;/div&gt;" style="shape=umlActor;verticalLabelPosition=bottom;verticalAlign=top;html=1;outlineConnect=0;" parent="1" vertex="1">
          <mxGeometry x="880" y="510" width="30" height="60" as="geometry" />
        </mxCell>
        <mxCell id="yvPvZGCzOI716VyN62wq-4" value="Realizar Cadastro" style="ellipse;whiteSpace=wrap;html=1;" parent="1" vertex="1">
          <mxGeometry x="60" y="250" width="120" height="80" as="geometry" />
        </mxCell>
        <mxCell id="yvPvZGCzOI716VyN62wq-5" value="" style="endArrow=none;html=1;rounded=0;entryX=1;entryY=0.5;entryDx=0;entryDy=0;" parent="1" source="yvPvZGCzOI716VyN62wq-1" target="yvPvZGCzOI716VyN62wq-7" edge="1">
          <mxGeometry width="50" height="50" relative="1" as="geometry">
            <mxPoint x="740" y="280" as="sourcePoint" />
            <mxPoint x="537" y="277" as="targetPoint" />
          </mxGeometry>
        </mxCell>
        <mxCell id="yvPvZGCzOI716VyN62wq-6" value="Cadastrar Coordenação Pedagógica" style="ellipse;whiteSpace=wrap;html=1;" parent="1" vertex="1">
          <mxGeometry x="414" y="100" width="120" height="80" as="geometry" />
        </mxCell>
        <mxCell id="yvPvZGCzOI716VyN62wq-7" value="Cadastrar Professores" style="ellipse;whiteSpace=wrap;html=1;" parent="1" vertex="1">
          <mxGeometry x="414" y="240" width="120" height="80" as="geometry" />
        </mxCell>
        <mxCell id="yvPvZGCzOI716VyN62wq-8" value="Cadastrar alunos" style="ellipse;whiteSpace=wrap;html=1;" parent="1" vertex="1">
          <mxGeometry x="414" y="360" width="120" height="80" as="geometry" />
        </mxCell>
        <mxCell id="yvPvZGCzOI716VyN62wq-9" value="" style="endArrow=none;html=1;rounded=0;exitX=0.5;exitY=0.5;exitDx=0;exitDy=0;exitPerimeter=0;" parent="1" source="yvPvZGCzOI716VyN62wq-2" target="yvPvZGCzOI716VyN62wq-8" edge="1">
          <mxGeometry width="50" height="50" relative="1" as="geometry">
            <mxPoint x="380" y="410" as="sourcePoint" />
            <mxPoint x="430" y="360" as="targetPoint" />
          </mxGeometry>
        </mxCell>
        <mxCell id="yvPvZGCzOI716VyN62wq-10" value="" style="endArrow=none;html=1;rounded=0;entryX=1;entryY=0.5;entryDx=0;entryDy=0;" parent="1" source="yvPvZGCzOI716VyN62wq-1" target="yvPvZGCzOI716VyN62wq-6" edge="1">
          <mxGeometry width="50" height="50" relative="1" as="geometry">
            <mxPoint x="755" y="290" as="sourcePoint" />
            <mxPoint x="539" y="292" as="targetPoint" />
          </mxGeometry>
        </mxCell>
        <mxCell id="yvPvZGCzOI716VyN62wq-11" value="" style="endArrow=none;html=1;rounded=0;entryX=1;entryY=0.413;entryDx=0;entryDy=0;entryPerimeter=0;" parent="1" source="yvPvZGCzOI716VyN62wq-1" target="yvPvZGCzOI716VyN62wq-8" edge="1">
          <mxGeometry width="50" height="50" relative="1" as="geometry">
            <mxPoint x="765" y="300" as="sourcePoint" />
            <mxPoint x="540" y="390" as="targetPoint" />
          </mxGeometry>
        </mxCell>
        <mxCell id="yvPvZGCzOI716VyN62wq-12" value="Fazer Login" style="ellipse;whiteSpace=wrap;html=1;" parent="1" vertex="1">
          <mxGeometry x="410" y="500" width="120" height="80" as="geometry" />
        </mxCell>
        <mxCell id="yvPvZGCzOI716VyN62wq-13" value="" style="endArrow=classic;html=1;rounded=0;dashed=1;exitX=0.5;exitY=1;exitDx=0;exitDy=0;" parent="1" source="yvPvZGCzOI716VyN62wq-4" target="yvPvZGCzOI716VyN62wq-12" edge="1">
          <mxGeometry width="50" height="50" relative="1" as="geometry">
            <mxPoint x="494" y="545" as="sourcePoint" />
            <mxPoint x="80" y="360" as="targetPoint" />
          </mxGeometry>
        </mxCell>
        <mxCell id="yvPvZGCzOI716VyN62wq-14" value="&amp;lt;&amp;lt;include&amp;gt;&amp;gt;" style="text;html=1;align=center;verticalAlign=middle;whiteSpace=wrap;rounded=0;" parent="1" vertex="1">
          <mxGeometry x="210" y="400" width="60" height="30" as="geometry" />
        </mxCell>
        <mxCell id="yvPvZGCzOI716VyN62wq-15" value="" style="endArrow=none;html=1;rounded=0;" parent="1" source="yvPvZGCzOI716VyN62wq-3" target="yvPvZGCzOI716VyN62wq-12" edge="1">
          <mxGeometry width="50" height="50" relative="1" as="geometry">
            <mxPoint x="390" y="530" as="sourcePoint" />
            <mxPoint x="490" y="700" as="targetPoint" />
          </mxGeometry>
        </mxCell>
        <mxCell id="yvPvZGCzOI716VyN62wq-16" value="" style="endArrow=none;html=1;rounded=0;" parent="1" source="yvPvZGCzOI716VyN62wq-12" target="yvPvZGCzOI716VyN62wq-2" edge="1">
          <mxGeometry width="50" height="50" relative="1" as="geometry">
            <mxPoint x="390" y="430" as="sourcePoint" />
            <mxPoint x="440" y="380" as="targetPoint" />
          </mxGeometry>
        </mxCell>
        <mxCell id="yvPvZGCzOI716VyN62wq-17" value="" style="endArrow=none;html=1;rounded=0;entryX=0.8;entryY=0.113;entryDx=0;entryDy=0;entryPerimeter=0;" parent="1" source="yvPvZGCzOI716VyN62wq-1" target="yvPvZGCzOI716VyN62wq-12" edge="1">
          <mxGeometry width="50" height="50" relative="1" as="geometry">
            <mxPoint x="270" y="500" as="sourcePoint" />
            <mxPoint x="330" y="570" as="targetPoint" />
          </mxGeometry>
        </mxCell>
        <mxCell id="yvPvZGCzOI716VyN62wq-18" value="Tela de Cadastro/Login" style="swimlane;whiteSpace=wrap;html=1;" parent="1" vertex="1">
          <mxGeometry x="10" y="60" width="810" height="590" as="geometry" />
        </mxCell>
        <mxCell id="yvPvZGCzOI716VyN62wq-19" value="Coordenação Pedagógica&lt;div&gt;&lt;br&gt;&lt;/div&gt;" style="shape=umlActor;verticalLabelPosition=bottom;verticalAlign=top;html=1;outlineConnect=0;" parent="1" vertex="1">
          <mxGeometry x="950" y="1080" width="30" height="60" as="geometry" />
        </mxCell>
        <object label="Gestão&lt;div&gt;&lt;br&gt;&lt;/div&gt;" Gestão="" id="yvPvZGCzOI716VyN62wq-20">
          <mxCell style="shape=umlActor;verticalLabelPosition=bottom;verticalAlign=top;html=1;outlineConnect=0;" parent="1" vertex="1">
            <mxGeometry x="940" y="800" width="30" height="60" as="geometry" />
          </mxCell>
        </object>
        <mxCell id="yvPvZGCzOI716VyN62wq-21" value="" style="endArrow=none;html=1;rounded=0;" parent="1" source="yvPvZGCzOI716VyN62wq-29" target="yvPvZGCzOI716VyN62wq-20" edge="1">
          <mxGeometry width="50" height="50" relative="1" as="geometry">
            <mxPoint x="390" y="880" as="sourcePoint" />
            <mxPoint x="440" y="830" as="targetPoint" />
          </mxGeometry>
        </mxCell>
        <mxCell id="yvPvZGCzOI716VyN62wq-22" value="" style="endArrow=none;html=1;rounded=0;exitX=0.75;exitY=0.913;exitDx=0;exitDy=0;exitPerimeter=0;" parent="1" source="yvPvZGCzOI716VyN62wq-29" target="yvPvZGCzOI716VyN62wq-19" edge="1">
          <mxGeometry width="50" height="50" relative="1" as="geometry">
            <mxPoint x="720" y="940" as="sourcePoint" />
            <mxPoint x="770" y="890" as="targetPoint" />
          </mxGeometry>
        </mxCell>
        <mxCell id="yvPvZGCzOI716VyN62wq-23" value="Entrada e Alteração de Dados" style="swimlane;whiteSpace=wrap;html=1;" parent="1" vertex="1">
          <mxGeometry x="10" y="670" width="810" height="690" as="geometry" />
        </mxCell>
        <mxCell id="yvPvZGCzOI716VyN62wq-24" value="&amp;lt;&amp;lt;include&amp;gt;&amp;gt;" style="text;html=1;align=center;verticalAlign=middle;whiteSpace=wrap;rounded=0;" parent="yvPvZGCzOI716VyN62wq-23" vertex="1">
          <mxGeometry x="610" y="180" width="60" height="30" as="geometry" />
        </mxCell>
        <mxCell id="yvPvZGCzOI716VyN62wq-25" value="&amp;lt;&amp;lt;include&amp;gt;&amp;gt;" style="text;html=1;align=center;verticalAlign=middle;whiteSpace=wrap;rounded=0;" parent="yvPvZGCzOI716VyN62wq-23" vertex="1">
          <mxGeometry x="470" y="295" width="60" height="30" as="geometry" />
        </mxCell>
        <mxCell id="yvPvZGCzOI716VyN62wq-26" value="&amp;lt;&amp;lt;include&amp;gt;&amp;gt;" style="text;html=1;align=center;verticalAlign=middle;whiteSpace=wrap;rounded=0;" parent="yvPvZGCzOI716VyN62wq-23" vertex="1">
          <mxGeometry x="460" y="390" width="60" height="30" as="geometry" />
        </mxCell>
        <mxCell id="yvPvZGCzOI716VyN62wq-27" value="&amp;lt;&amp;lt;include&amp;gt;&amp;gt;" style="text;html=1;align=center;verticalAlign=middle;whiteSpace=wrap;rounded=0;" parent="yvPvZGCzOI716VyN62wq-23" vertex="1">
          <mxGeometry x="530" y="469" width="60" height="30" as="geometry" />
        </mxCell>
        <mxCell id="yvPvZGCzOI716VyN62wq-28" value="Permitir avaliação comportamental" style="ellipse;whiteSpace=wrap;html=1;" parent="yvPvZGCzOI716VyN62wq-23" vertex="1">
          <mxGeometry x="310" y="560" width="120" height="80" as="geometry" />
        </mxCell>
        <mxCell id="yvPvZGCzOI716VyN62wq-29" value="Visualização/&lt;div&gt;Alteração&lt;/div&gt;" style="ellipse;whiteSpace=wrap;html=1;" parent="yvPvZGCzOI716VyN62wq-23" vertex="1">
          <mxGeometry x="670" y="270" width="120" height="80" as="geometry" />
        </mxCell>
        <mxCell id="yvPvZGCzOI716VyN62wq-30" value="" style="endArrow=classic;html=1;rounded=0;dashed=1;" parent="yvPvZGCzOI716VyN62wq-23" source="yvPvZGCzOI716VyN62wq-28" target="yvPvZGCzOI716VyN62wq-29" edge="1">
          <mxGeometry width="50" height="50" relative="1" as="geometry">
            <mxPoint x="580" y="250" as="sourcePoint" />
            <mxPoint x="452" y="144" as="targetPoint" />
          </mxGeometry>
        </mxCell>
        <mxCell id="yvPvZGCzOI716VyN62wq-31" value="Cadastrar planejamento das aulas" style="ellipse;whiteSpace=wrap;html=1;" parent="yvPvZGCzOI716VyN62wq-23" vertex="1">
          <mxGeometry x="310" y="410" width="120" height="80" as="geometry" />
        </mxCell>
        <mxCell id="yvPvZGCzOI716VyN62wq-32" value="" style="endArrow=classic;html=1;rounded=0;dashed=1;entryX=0.1;entryY=0.825;entryDx=0;entryDy=0;entryPerimeter=0;exitX=0.967;exitY=0.388;exitDx=0;exitDy=0;exitPerimeter=0;" parent="yvPvZGCzOI716VyN62wq-23" source="yvPvZGCzOI716VyN62wq-31" target="yvPvZGCzOI716VyN62wq-29" edge="1">
          <mxGeometry width="50" height="50" relative="1" as="geometry">
            <mxPoint x="570" y="190" as="sourcePoint" />
            <mxPoint x="442" y="134" as="targetPoint" />
          </mxGeometry>
        </mxCell>
        <mxCell id="yvPvZGCzOI716VyN62wq-33" value="Lançar presença" style="ellipse;whiteSpace=wrap;html=1;" parent="yvPvZGCzOI716VyN62wq-23" vertex="1">
          <mxGeometry x="310" y="260" width="120" height="80" as="geometry" />
        </mxCell>
        <mxCell id="yvPvZGCzOI716VyN62wq-34" value="" style="endArrow=classic;html=1;rounded=0;dashed=1;exitX=1;exitY=0.5;exitDx=0;exitDy=0;" parent="yvPvZGCzOI716VyN62wq-23" source="yvPvZGCzOI716VyN62wq-33" target="yvPvZGCzOI716VyN62wq-29" edge="1">
          <mxGeometry width="50" height="50" relative="1" as="geometry">
            <mxPoint x="595" y="150" as="sourcePoint" />
            <mxPoint x="490" y="150" as="targetPoint" />
          </mxGeometry>
        </mxCell>
        <mxCell id="yvPvZGCzOI716VyN62wq-35" value="Lançar notas" style="ellipse;whiteSpace=wrap;html=1;" parent="yvPvZGCzOI716VyN62wq-23" vertex="1">
          <mxGeometry x="330" y="30" width="120" height="80" as="geometry" />
        </mxCell>
        <mxCell id="yvPvZGCzOI716VyN62wq-36" value="" style="endArrow=classic;html=1;rounded=0;dashed=1;exitX=1;exitY=0.5;exitDx=0;exitDy=0;entryX=0;entryY=0;entryDx=0;entryDy=0;" parent="yvPvZGCzOI716VyN62wq-23" source="yvPvZGCzOI716VyN62wq-35" target="yvPvZGCzOI716VyN62wq-29" edge="1">
          <mxGeometry width="50" height="50" relative="1" as="geometry">
            <mxPoint x="455" y="30" as="sourcePoint" />
            <mxPoint x="693" y="278" as="targetPoint" />
          </mxGeometry>
        </mxCell>
        <mxCell id="yvPvZGCzOI716VyN62wq-37" value="Gerar Porcentagem das presenças" style="ellipse;whiteSpace=wrap;html=1;" parent="yvPvZGCzOI716VyN62wq-23" vertex="1">
          <mxGeometry x="390" y="140" width="120" height="80" as="geometry" />
        </mxCell>
        <mxCell id="yvPvZGCzOI716VyN62wq-38" value="" style="endArrow=classic;html=1;rounded=0;dashed=1;" parent="yvPvZGCzOI716VyN62wq-23" target="yvPvZGCzOI716VyN62wq-37" edge="1">
          <mxGeometry width="50" height="50" relative="1" as="geometry">
            <mxPoint x="380" y="260" as="sourcePoint" />
            <mxPoint x="750" y="280" as="targetPoint" />
          </mxGeometry>
        </mxCell>
        <mxCell id="yvPvZGCzOI716VyN62wq-39" value="&amp;lt;&amp;lt;include&amp;gt;&amp;gt;" style="text;html=1;align=center;verticalAlign=middle;whiteSpace=wrap;rounded=0;" parent="yvPvZGCzOI716VyN62wq-23" vertex="1">
          <mxGeometry x="410" y="230" width="60" height="30" as="geometry" />
        </mxCell>
        <mxCell id="yvPvZGCzOI716VyN62wq-40" value="Geração de relatórios pedagógicos" style="ellipse;whiteSpace=wrap;html=1;" parent="1" vertex="1">
          <mxGeometry x="297" y="1480" width="120" height="80" as="geometry" />
        </mxCell>
        <mxCell id="yvPvZGCzOI716VyN62wq-41" value="" style="endArrow=none;html=1;rounded=0;entryX=0;entryY=1;entryDx=0;entryDy=0;" parent="1" target="yvPvZGCzOI716VyN62wq-40" edge="1">
          <mxGeometry width="50" height="50" relative="1" as="geometry">
            <mxPoint x="-83" y="1733" as="sourcePoint" />
            <mxPoint x="467" y="1610" as="targetPoint" />
          </mxGeometry>
        </mxCell>
        <mxCell id="yvPvZGCzOI716VyN62wq-42" value="Geração de Comprovante de matrícula" style="ellipse;whiteSpace=wrap;html=1;" parent="1" vertex="1">
          <mxGeometry x="462" y="1530" width="120" height="80" as="geometry" />
        </mxCell>
        <mxCell id="yvPvZGCzOI716VyN62wq-43" value="Geração de Comprovante de frequência" style="ellipse;whiteSpace=wrap;html=1;" parent="1" vertex="1">
          <mxGeometry x="587" y="1600" width="120" height="80" as="geometry" />
        </mxCell>
        <mxCell id="yvPvZGCzOI716VyN62wq-44" value="Geração de Histórico Escolar" style="ellipse;whiteSpace=wrap;html=1;" parent="1" vertex="1">
          <mxGeometry x="627" y="1690" width="120" height="80" as="geometry" />
        </mxCell>
        <mxCell id="yvPvZGCzOI716VyN62wq-45" style="edgeStyle=orthogonalEdgeStyle;rounded=0;orthogonalLoop=1;jettySize=auto;html=1;exitX=0.5;exitY=1;exitDx=0;exitDy=0;" parent="1" source="yvPvZGCzOI716VyN62wq-43" target="yvPvZGCzOI716VyN62wq-43" edge="1">
          <mxGeometry relative="1" as="geometry" />
        </mxCell>
        <mxCell id="yvPvZGCzOI716VyN62wq-46" value="Geração de Atestados" style="ellipse;whiteSpace=wrap;html=1;" parent="1" vertex="1">
          <mxGeometry x="487" y="1780" width="120" height="80" as="geometry" />
        </mxCell>
        <mxCell id="yvPvZGCzOI716VyN62wq-47" value="Geração de Boletins" style="ellipse;whiteSpace=wrap;html=1;" parent="1" vertex="1">
          <mxGeometry x="367" y="1850" width="120" height="80" as="geometry" />
        </mxCell>
        <mxCell id="yvPvZGCzOI716VyN62wq-48" value="" style="endArrow=none;html=1;rounded=0;entryX=0;entryY=0.5;entryDx=0;entryDy=0;" parent="1" target="yvPvZGCzOI716VyN62wq-42" edge="1">
          <mxGeometry width="50" height="50" relative="1" as="geometry">
            <mxPoint x="-83" y="1735" as="sourcePoint" />
            <mxPoint x="467" y="1610" as="targetPoint" />
          </mxGeometry>
        </mxCell>
        <mxCell id="yvPvZGCzOI716VyN62wq-49" value="" style="endArrow=none;html=1;rounded=0;" parent="1" target="yvPvZGCzOI716VyN62wq-43" edge="1">
          <mxGeometry width="50" height="50" relative="1" as="geometry">
            <mxPoint x="-83" y="1738" as="sourcePoint" />
            <mxPoint x="467" y="1610" as="targetPoint" />
          </mxGeometry>
        </mxCell>
        <mxCell id="yvPvZGCzOI716VyN62wq-50" value="" style="endArrow=none;html=1;rounded=0;" parent="1" target="yvPvZGCzOI716VyN62wq-44" edge="1">
          <mxGeometry width="50" height="50" relative="1" as="geometry">
            <mxPoint x="-83" y="1740" as="sourcePoint" />
            <mxPoint x="467" y="1610" as="targetPoint" />
          </mxGeometry>
        </mxCell>
        <mxCell id="yvPvZGCzOI716VyN62wq-51" value="" style="endArrow=none;html=1;rounded=0;" parent="1" target="yvPvZGCzOI716VyN62wq-46" edge="1">
          <mxGeometry width="50" height="50" relative="1" as="geometry">
            <mxPoint x="-83" y="1742" as="sourcePoint" />
            <mxPoint x="467" y="1610" as="targetPoint" />
          </mxGeometry>
        </mxCell>
        <mxCell id="yvPvZGCzOI716VyN62wq-52" value="" style="endArrow=none;html=1;rounded=0;entryX=0.05;entryY=0.238;entryDx=0;entryDy=0;entryPerimeter=0;" parent="1" target="yvPvZGCzOI716VyN62wq-47" edge="1">
          <mxGeometry width="50" height="50" relative="1" as="geometry">
            <mxPoint x="-83" y="1744" as="sourcePoint" />
            <mxPoint x="467" y="1610" as="targetPoint" />
          </mxGeometry>
        </mxCell>
        <mxCell id="yvPvZGCzOI716VyN62wq-53" value="Saídas" style="swimlane;whiteSpace=wrap;html=1;" parent="1" vertex="1">
          <mxGeometry x="17" y="1380" width="803" height="570" as="geometry" />
        </mxCell>
        <mxCell id="yvPvZGCzOI716VyN62wq-54" value="" style="endArrow=none;html=1;rounded=0;exitX=0.5;exitY=0.5;exitDx=0;exitDy=0;exitPerimeter=0;entryX=0;entryY=0.5;entryDx=0;entryDy=0;" parent="1" source="yvPvZGCzOI716VyN62wq-55" target="yvPvZGCzOI716VyN62wq-40" edge="1">
          <mxGeometry width="50" height="50" relative="1" as="geometry">
            <mxPoint x="307" y="1440" as="sourcePoint" />
            <mxPoint x="290" y="1510" as="targetPoint" />
          </mxGeometry>
        </mxCell>
        <mxCell id="yvPvZGCzOI716VyN62wq-55" value="Coordenação Pedagógica&lt;div&gt;&lt;br&gt;&lt;/div&gt;" style="shape=umlActor;verticalLabelPosition=bottom;verticalAlign=top;html=1;outlineConnect=0;" parent="1" vertex="1">
          <mxGeometry x="-93" y="1490" width="30" height="60" as="geometry" />
        </mxCell>
        <mxCell id="yvPvZGCzOI716VyN62wq-56" value="" style="endArrow=none;html=1;rounded=0;entryX=0;entryY=0.5;entryDx=0;entryDy=0;endFill=0;startArrow=block;startFill=0;" parent="1" source="yvPvZGCzOI716VyN62wq-4" target="yvPvZGCzOI716VyN62wq-6" edge="1">
          <mxGeometry width="50" height="50" relative="1" as="geometry">
            <mxPoint x="424" y="290" as="sourcePoint" />
            <mxPoint x="187" y="292" as="targetPoint" />
          </mxGeometry>
        </mxCell>
        <mxCell id="yvPvZGCzOI716VyN62wq-57" value="" style="endArrow=none;html=1;rounded=0;entryX=0;entryY=0.5;entryDx=0;entryDy=0;endFill=0;startArrow=block;startFill=0;" parent="1" source="yvPvZGCzOI716VyN62wq-4" target="yvPvZGCzOI716VyN62wq-7" edge="1">
          <mxGeometry width="50" height="50" relative="1" as="geometry">
            <mxPoint x="510" y="210" as="sourcePoint" />
            <mxPoint x="273" y="212" as="targetPoint" />
          </mxGeometry>
        </mxCell>
        <mxCell id="yvPvZGCzOI716VyN62wq-58" value="" style="endArrow=block;html=1;rounded=0;exitX=0;exitY=0.5;exitDx=0;exitDy=0;endFill=0;entryX=1;entryY=1;entryDx=0;entryDy=0;" parent="1" source="yvPvZGCzOI716VyN62wq-8" target="yvPvZGCzOI716VyN62wq-4" edge="1">
          <mxGeometry width="50" height="50" relative="1" as="geometry">
            <mxPoint x="414" y="439.99999999999994" as="sourcePoint" />
            <mxPoint x="170.2286058804034" y="355.41975220768194" as="targetPoint" />
          </mxGeometry>
        </mxCell>
        <object label="Gestão&lt;div&gt;&lt;br&gt;&lt;/div&gt;" Gestão="" id="QoxemYyx0xUmvfzIDrgZ-1">
          <mxCell style="shape=umlActor;verticalLabelPosition=bottom;verticalAlign=top;html=1;outlineConnect=0;" vertex="1" parent="1">
            <mxGeometry x="-110" y="1700" width="30" height="60" as="geometry" />
          </mxCell>
        </object>
      </root>
    </mxGraphModel>
  </diagram>
</mxfile>
